<?xml version="1.0" encoding="UTF-8"?>
<!-- Created with Inkscape (http://www.inkscape.org/) -->
<svg width="110" height="80" version="1.1" viewBox="0 0 110 80" xmlns="http://www.w3.org/2000/svg">
 <g>
  <g transform="matrix(.5 0 0 .5 4.5 9.8)" style="stroke-width:2">
   <polygon class="st0" points="135 59 177 73 112 96 112 67" style="stroke-width:2"/>
   <polygon class="st1" points="135 59 177 45 154 37 112 51" style="stroke-width:2"/>
   <polygon class="st2" points="177 45 177 73 135 59" style="stroke-width:2"/>
   <polygon class="st3" points="154 37 112 22 177 .3 177 29" style="stroke-width:2"/>
   <polygon class="st4" points="112 51 112 22 154 37" style="stroke-width:2"/>
   <g style="stroke-width:2">
    <g style="stroke-width:2">
     <g style="stroke-width:2">
      <g style="stroke-width:2">
       <path class="st2" d="m26 105c-.5-3.7-4.1-6.5-8.1-6.5-7.3 0-10 6.2-10 13 0 6.2 2.8 12 10 12 5 0 7.8-3.4 8.4-8.3h7.9c-.8 9.2-7.2 15-16 15-11-.1-18-8.6-18-19 0-11 6.8-20 18-20 8.2 0 15 4.8 16 13h-7.9z" style="stroke-width:2"/>
       <path class="st2" d="m37 102h7v5h.1c1.4-3.4 5-5.7 8.6-5.7.5 0 1.1.1 1.6.3v6.9c-.7-.2-1.8-.3-2.6-.3-5.4 0-7.3 3.9-7.3 8.6v12h-7.4z" style="stroke-width:2"/>
       <path class="st2" d="m69 102c8.5 0 14 5.6 14 14 0 8.5-5.5 14-14 14s-14-5.6-14-14c.1-8.6 5.5-14 14-14zm0 23c5 0 6.5-4.3 6.5-8.6s-1.5-8.6-6.5-8.6-6.5 4.3-6.5 8.6 1.6 8.6 6.5 8.6z" style="stroke-width:2"/>
       <path class="st2" d="m91 121c.1 3.2 2.8 4.5 5.7 4.5 2.1 0 4.8-.8 4.8-3.4 0-2.2-3.1-3-8.4-4.2-4.3-.9-8.5-2.4-8.5-7.2 0-6.9 5.9-8.6 12-8.6 5.9 0 11 2 12 8.6h-7c-.2-2.9-2.4-3.6-5-3.6-1.7 0-4.1.3-4.1 2.5 0 2.6 4.2 3 8.4 4 4.3 1 8.5 2.5 8.5 7.5 0 7.1-6.1 9.3-12 9.3s-12-2.3-13-9.5h7z" style="stroke-width:2"/>
       <path class="st2" d="m118 121c.1 3.2 2.8 4.5 5.7 4.5 2.1 0 4.8-.8 4.8-3.4 0-2.2-3.1-3-8.4-4.2-4.3-.9-8.5-2.4-8.5-7.2 0-6.9 5.9-8.6 12-8.6 5.9 0 11 2 12 8.6h-7c-.2-2.9-2.4-3.6-5-3.6-1.7 0-4.1.3-4.1 2.5 0 2.6 4.2 3 8.4 4 4.3 1 8.5 2.5 8.5 7.5 0 7.1-6.1 9.3-12 9.3s-12-2.3-13-9.5h7z" style="stroke-width:2"/>
       <path class="st2" d="m138 102h7v5h.1c1.4-3.4 5-5.7 8.6-5.7.5 0 1.1.1 1.6.3v6.9c-.7-.2-1.8-.3-2.6-.3-5.4 0-7.3 3.9-7.3 8.6v12h-7.4z" style="stroke-width:2"/>
       <path class="st2" d="m164 118c.2 4.7 2.5 6.8 6.6 6.8 3 0 5.3-1.8 5.8-3.5h6.5c-2.1 6.3-6.5 9-13 9-8.5 0-14-5.8-14-14 0-8 5.6-14 14-14 9.1 0 14 7.7 13 16h-19zm12-4.6c-.7-3.7-2.3-5.7-5.9-5.7-4.7 0-6 3.6-6.1 5.7z" style="stroke-width:2"/>
       <path class="st2" d="m187 108h-4.4v-4.9h4.4v-2.1c0-4.7 3-8.2 9-8.2 1.3 0 2.6.2 3.9.2v5.5c-.9-.1-1.8-.2-2.7-.2-2 0-2.8.8-2.8 3.1v1.6h5.1v4.9h-5.1v22h-7.4z" style="stroke-width:2"/>
      </g>
     </g>
    </g>
   </g>
  </g>
 </g>
 <style type="text/css">.st0{fill:#3EB1C8;}
	.st1{fill:#D8D2C4;}
	.st2{fill:#4F5858;}
	.st3{fill:#FFC72C;}
	.st4{fill:#EF3340;}</style>
</svg>
